<svg xmlns="http://www.w3.org/2000/svg" width="900" height="268" viewBox="0 0 900 268">
  <rect width="900" height="268" fill="#ffffff" rx="6" ry="6" />
  <!-- title -->
  <text x="450" y="20" text-anchor="middle"
        font-family="-apple-system, BlinkMacSystemFont, &quot;Segoe UI&quot;, Helvetica, Arial, sans-serif" font-size="14" font-weight="600" fill="#24292e"
        >Car Listings — Record Growth</text>
  <!-- legend -->
  <circle cx="365" cy="31" r="4" fill="#3b82f6" />
  <text x="373" y="34" font-family="-apple-system, BlinkMacSystemFont, &quot;Segoe UI&quot;, Helvetica, Arial, sans-serif" font-size="11" fill="#586069">Total Records</text>
  <circle cx="455" cy="31" r="4" fill="#22c55e" />
  <text x="463" y="34" font-family="-apple-system, BlinkMacSystemFont, &quot;Segoe UI&quot;, Helvetica, Arial, sans-serif" font-size="11" fill="#586069">Added</text>
  <!-- grid lines -->
  <line x1="58" y1="52" x2="848" y2="52"
           stroke="#e1e4e8" stroke-width="1" stroke-dasharray="4,3" />
  <line x1="58" y1="145" x2="848" y2="145"
           stroke="#e1e4e8" stroke-width="1" stroke-dasharray="4,3" />
  <line x1="58" y1="236" x2="848" y2="236"
           stroke="#e1e4e8" stroke-width="1" stroke-dasharray="4,3" />
  <!-- bars (Added, right axis) -->
  <rect x="59" y="108" width="28" height="132"
          rx="1" fill="#22c55eb3" />
  <rect x="89" y="160" width="28" height="80"
          rx="1" fill="#22c55eb3" />
  <rect x="119" y="101" width="28" height="139"
          rx="1" fill="#22c55eb3" />
  <rect x="149" y="119" width="28" height="121"
          rx="1" fill="#22c55eb3" />
  <rect x="179" y="130" width="28" height="110"
          rx="1" fill="#22c55eb3" />
  <rect x="209" y="141" width="28" height="99"
          rx="1" fill="#22c55eb3" />
  <rect x="239" y="142" width="28" height="98"
          rx="1" fill="#22c55eb3" />
  <rect x="269" y="140" width="28" height="100"
          rx="1" fill="#22c55eb3" />
  <rect x="299" y="193" width="28" height="47"
          rx="1" fill="#22c55eb3" />
  <rect x="329" y="206" width="28" height="34"
          rx="1" fill="#22c55eb3" />
  <rect x="359" y="189" width="28" height="51"
          rx="1" fill="#22c55eb3" />
  <rect x="389" y="187" width="28" height="53"
          rx="1" fill="#22c55eb3" />
  <rect x="419" y="189" width="28" height="51"
          rx="1" fill="#22c55eb3" />
  <rect x="449" y="186" width="28" height="54"
          rx="1" fill="#22c55eb3" />
  <rect x="479" y="184" width="28" height="56"
          rx="1" fill="#22c55eb3" />
  <rect x="509" y="207" width="28" height="33"
          rx="1" fill="#22c55eb3" />
  <rect x="539" y="207" width="28" height="33"
          rx="1" fill="#22c55eb3" />
  <rect x="569" y="207" width="28" height="33"
          rx="1" fill="#22c55eb3" />
  <rect x="599" y="158" width="28" height="82"
          rx="1" fill="#22c55eb3" />
  <rect x="629" y="121" width="28" height="119"
          rx="1" fill="#22c55eb3" />
  <rect x="659" y="149" width="28" height="91"
          rx="1" fill="#22c55eb3" />
  <rect x="689" y="73" width="28" height="167"
          rx="1" fill="#22c55eb3" />
  <rect x="719" y="88" width="28" height="152"
          rx="1" fill="#22c55eb3" />
  <rect x="749" y="111" width="28" height="129"
          rx="1" fill="#22c55eb3" />
  <rect x="779" y="159" width="28" height="81"
          rx="1" fill="#22c55eb3" />
  <rect x="809" y="142" width="28" height="98"
          rx="1" fill="#22c55eb3" />
  <!-- line (Total, left axis) -->
  <polyline points="73,240 103,233 133,220 163,209 193,200 223,191 253,182 283,173 313,169 343,166 373,161 403,156 433,152 463,147 493,142 523,139 553,136 583,133 613,125 643,115 673,106 703,91 733,78 763,66 793,59 823,50" fill="none" stroke="#3b82f6" stroke-width="2" stroke-linejoin="round" stroke-linecap="round" />
  <!-- left y-axis labels (Total) -->
  <text x="52" y="56" text-anchor="end"
           font-family="-apple-system, BlinkMacSystemFont, &quot;Segoe UI&quot;, Helvetica, Arial, sans-serif" font-size="10" fill="#586069"
           >8M</text>
  <text x="52" y="149" text-anchor="end"
           font-family="-apple-system, BlinkMacSystemFont, &quot;Segoe UI&quot;, Helvetica, Arial, sans-serif" font-size="10" fill="#586069"
           >6M</text>
  <text x="52" y="240" text-anchor="end"
           font-family="-apple-system, BlinkMacSystemFont, &quot;Segoe UI&quot;, Helvetica, Arial, sans-serif" font-size="10" fill="#586069"
           >5M</text>
  <!-- right y-axis labels (Added) -->
  <text x="854" y="56" text-anchor="start"
           font-family="-apple-system, BlinkMacSystemFont, &quot;Segoe UI&quot;, Helvetica, Arial, sans-serif" font-size="10" fill="#22c55e"
           >266k</text>
  <text x="854" y="149" text-anchor="start"
           font-family="-apple-system, BlinkMacSystemFont, &quot;Segoe UI&quot;, Helvetica, Arial, sans-serif" font-size="10" fill="#22c55e"
           >133k</text>
  <text x="854" y="240" text-anchor="start"
           font-family="-apple-system, BlinkMacSystemFont, &quot;Segoe UI&quot;, Helvetica, Arial, sans-serif" font-size="10" fill="#22c55e"
           >0</text>
  <!-- axes -->
  <line x1="58" y1="50" x2="58" y2="240"
        stroke="#e1e4e8" stroke-width="1" />
  <line x1="58" y1="240" x2="848" y2="240"
        stroke="#e1e4e8" stroke-width="1" />
  <line x1="848" y1="50" x2="848" y2="240"
           stroke="#e1e4e8" stroke-width="1" />
  <!-- x-axis labels -->
  <text x="73" y="256" text-anchor="middle"
           font-family="-apple-system, BlinkMacSystemFont, &quot;Segoe UI&quot;, Helvetica, Arial, sans-serif" font-size="10" fill="#586069"
           >Jan 25</text>
  <text x="313" y="256" text-anchor="middle"
           font-family="-apple-system, BlinkMacSystemFont, &quot;Segoe UI&quot;, Helvetica, Arial, sans-serif" font-size="10" fill="#586069"
           >Mar 22</text>
  <text x="553" y="256" text-anchor="middle"
           font-family="-apple-system, BlinkMacSystemFont, &quot;Segoe UI&quot;, Helvetica, Arial, sans-serif" font-size="10" fill="#586069"
           >May 17</text>
  <text x="793" y="256" text-anchor="middle"
           font-family="-apple-system, BlinkMacSystemFont, &quot;Segoe UI&quot;, Helvetica, Arial, sans-serif" font-size="10" fill="#586069"
           >Jul 12</text>
  <text x="823" y="256" text-anchor="middle"
           font-family="-apple-system, BlinkMacSystemFont, &quot;Segoe UI&quot;, Helvetica, Arial, sans-serif" font-size="10" fill="#586069"
           >Jul 19</text>
</svg>