<svg xmlns="http://www.w3.org/2000/svg" width="900" height="268" viewBox="0 0 900 268">
  <rect width="900" height="268" fill="#ffffff" rx="6" ry="6" />
  <!-- title -->
  <text x="450" y="20" text-anchor="middle"
        font-family="-apple-system, BlinkMacSystemFont, &quot;Segoe UI&quot;, Helvetica, Arial, sans-serif" font-size="14" font-weight="600" fill="#24292e"
        >Car Listings — Record Growth</text>
  <!-- legend -->
  <circle cx="365" cy="31" r="4" fill="#3b82f6" />
  <text x="373" y="34" font-family="-apple-system, BlinkMacSystemFont, &quot;Segoe UI&quot;, Helvetica, Arial, sans-serif" font-size="11" fill="#586069">Total Records</text>
  <circle cx="455" cy="31" r="4" fill="#22c55e" />
  <text x="463" y="34" font-family="-apple-system, BlinkMacSystemFont, &quot;Segoe UI&quot;, Helvetica, Arial, sans-serif" font-size="11" fill="#586069">Added</text>
  <!-- grid lines -->
  <line x1="58" y1="52" x2="848" y2="52"
           stroke="#e1e4e8" stroke-width="1" stroke-dasharray="4,3" />
  <line x1="58" y1="145" x2="848" y2="145"
           stroke="#e1e4e8" stroke-width="1" stroke-dasharray="4,3" />
  <line x1="58" y1="236" x2="848" y2="236"
           stroke="#e1e4e8" stroke-width="1" stroke-dasharray="4,3" />
  <!-- bars (Added, right axis) -->
  <rect x="59" y="73" width="32" height="167"
          rx="1" fill="#22c55eb3" />
  <rect x="93" y="95" width="32" height="145"
          rx="1" fill="#22c55eb3" />
  <rect x="127" y="147" width="32" height="93"
          rx="1" fill="#22c55eb3" />
  <rect x="161" y="184" width="32" height="56"
          rx="1" fill="#22c55eb3" />
  <rect x="195" y="142" width="32" height="98"
          rx="1" fill="#22c55eb3" />
  <rect x="229" y="155" width="32" height="85"
          rx="1" fill="#22c55eb3" />
  <rect x="263" y="163" width="32" height="77"
          rx="1" fill="#22c55eb3" />
  <rect x="297" y="170" width="32" height="70"
          rx="1" fill="#22c55eb3" />
  <rect x="331" y="171" width="32" height="69"
          rx="1" fill="#22c55eb3" />
  <rect x="365" y="170" width="32" height="70"
          rx="1" fill="#22c55eb3" />
  <rect x="399" y="207" width="32" height="33"
          rx="1" fill="#22c55eb3" />
  <rect x="433" y="216" width="32" height="24"
          rx="1" fill="#22c55eb3" />
  <rect x="467" y="204" width="32" height="36"
          rx="1" fill="#22c55eb3" />
  <rect x="501" y="203" width="32" height="37"
          rx="1" fill="#22c55eb3" />
  <rect x="535" y="204" width="32" height="36"
          rx="1" fill="#22c55eb3" />
  <rect x="569" y="202" width="32" height="38"
          rx="1" fill="#22c55eb3" />
  <rect x="603" y="200" width="32" height="40"
          rx="1" fill="#22c55eb3" />
  <rect x="637" y="217" width="32" height="23"
          rx="1" fill="#22c55eb3" />
  <rect x="671" y="217" width="32" height="23"
          rx="1" fill="#22c55eb3" />
  <rect x="705" y="217" width="32" height="23"
          rx="1" fill="#22c55eb3" />
  <rect x="739" y="182" width="32" height="58"
          rx="1" fill="#22c55eb3" />
  <rect x="773" y="156" width="32" height="84"
          rx="1" fill="#22c55eb3" />
  <rect x="807" y="176" width="32" height="64"
          rx="1" fill="#22c55eb3" />
  <!-- line (Total, left axis) -->
  <polyline points="75,240 109,218 143,205 177,196 211,182 245,169 279,158 313,147 347,137 381,127 415,122 449,118 483,113 517,108 551,102 585,97 619,91 653,87 687,84 721,81 755,72 789,60 823,50" fill="none" stroke="#3b82f6" stroke-width="2" stroke-linejoin="round" stroke-linecap="round" />
  <!-- left y-axis labels (Total) -->
  <text x="52" y="56" text-anchor="end"
           font-family="-apple-system, BlinkMacSystemFont, &quot;Segoe UI&quot;, Helvetica, Arial, sans-serif" font-size="10" fill="#586069"
           >7M</text>
  <text x="52" y="149" text-anchor="end"
           font-family="-apple-system, BlinkMacSystemFont, &quot;Segoe UI&quot;, Helvetica, Arial, sans-serif" font-size="10" fill="#586069"
           >5M</text>
  <text x="52" y="240" text-anchor="end"
           font-family="-apple-system, BlinkMacSystemFont, &quot;Segoe UI&quot;, Helvetica, Arial, sans-serif" font-size="10" fill="#586069"
           >4M</text>
  <!-- right y-axis labels (Added) -->
  <text x="854" y="56" text-anchor="start"
           font-family="-apple-system, BlinkMacSystemFont, &quot;Segoe UI&quot;, Helvetica, Arial, sans-serif" font-size="10" fill="#22c55e"
           >378k</text>
  <text x="854" y="149" text-anchor="start"
           font-family="-apple-system, BlinkMacSystemFont, &quot;Segoe UI&quot;, Helvetica, Arial, sans-serif" font-size="10" fill="#22c55e"
           >189k</text>
  <text x="854" y="240" text-anchor="start"
           font-family="-apple-system, BlinkMacSystemFont, &quot;Segoe UI&quot;, Helvetica, Arial, sans-serif" font-size="10" fill="#22c55e"
           >0</text>
  <!-- axes -->
  <line x1="58" y1="50" x2="58" y2="240"
        stroke="#e1e4e8" stroke-width="1" />
  <line x1="58" y1="240" x2="848" y2="240"
        stroke="#e1e4e8" stroke-width="1" />
  <line x1="848" y1="50" x2="848" y2="240"
           stroke="#e1e4e8" stroke-width="1" />
  <!-- x-axis labels -->
  <text x="75" y="256" text-anchor="middle"
           font-family="-apple-system, BlinkMacSystemFont, &quot;Segoe UI&quot;, Helvetica, Arial, sans-serif" font-size="10" fill="#586069"
           >Jan 11</text>
  <text x="313" y="256" text-anchor="middle"
           font-family="-apple-system, BlinkMacSystemFont, &quot;Segoe UI&quot;, Helvetica, Arial, sans-serif" font-size="10" fill="#586069"
           >Mar 1</text>
  <text x="551" y="256" text-anchor="middle"
           font-family="-apple-system, BlinkMacSystemFont, &quot;Segoe UI&quot;, Helvetica, Arial, sans-serif" font-size="10" fill="#586069"
           >Apr 19</text>
  <text x="789" y="256" text-anchor="middle"
           font-family="-apple-system, BlinkMacSystemFont, &quot;Segoe UI&quot;, Helvetica, Arial, sans-serif" font-size="10" fill="#586069"
           >Jun 7</text>
  <text x="823" y="256" text-anchor="middle"
           font-family="-apple-system, BlinkMacSystemFont, &quot;Segoe UI&quot;, Helvetica, Arial, sans-serif" font-size="10" fill="#586069"
           >Jun 14</text>
</svg>